<svg xmlns="http://www.w3.org/2000/svg" viewBox="-100 -100 200 200"><g fill="none" stroke="#000"><circle r="97" stroke-width="1.4"/><circle r="91" stroke-width=".7"/><circle r="94" stroke-width="4.6" stroke-dasharray=".9 8.3" stroke-opacity=".8"/><circle r="64" stroke-width=".7"/><circle r="60" stroke-width=".6" stroke-dasharray="1.5 2.2"/></g><g fill="#000"><g transform="rotate(22.5)"><path d="M0 0L-5 -5L0 -46Z"/><path d="M0 0L5 -5L0 -46Z" fill-opacity=".32"/></g><g transform="rotate(67.5)"><path d="M0 0L-5 -5L0 -46Z"/><path d="M0 0L5 -5L0 -46Z" fill-opacity=".32"/></g><g transform="rotate(112.5)"><path d="M0 0L-5 -5L0 -46Z"/><path d="M0 0L5 -5L0 -46Z" fill-opacity=".32"/></g><g transform="rotate(157.5)"><path d="M0 0L-5 -5L0 -46Z"/><path d="M0 0L5 -5L0 -46Z" fill-opacity=".32"/></g><g transform="rotate(202.5)"><path d="M0 0L-5 -5L0 -46Z"/><path d="M0 0L5 -5L0 -46Z" fill-opacity=".32"/></g><g transform="rotate(247.5)"><path d="M0 0L-5 -5L0 -46Z"/><path d="M0 0L5 -5L0 -46Z" fill-opacity=".32"/></g><g transform="rotate(292.5)"><path d="M0 0L-5 -5L0 -46Z"/><path d="M0 0L5 -5L0 -46Z" fill-opacity=".32"/></g><g transform="rotate(337.5)"><path d="M0 0L-5 -5L0 -46Z"/><path d="M0 0L5 -5L0 -46Z" fill-opacity=".32"/></g><g transform="rotate(45)"><path d="M0 0L-9 -9L0 -66Z"/><path d="M0 0L9 -9L0 -66Z" fill-opacity=".32"/></g><g transform="rotate(135)"><path d="M0 0L-9 -9L0 -66Z"/><path d="M0 0L9 -9L0 -66Z" fill-opacity=".32"/></g><g transform="rotate(225)"><path d="M0 0L-9 -9L0 -66Z"/><path d="M0 0L9 -9L0 -66Z" fill-opacity=".32"/></g><g transform="rotate(315)"><path d="M0 0L-9 -9L0 -66Z"/><path d="M0 0L9 -9L0 -66Z" fill-opacity=".32"/></g><g transform="rotate(0)"><path d="M0 0L-13 -13L0 -94Z"/><path d="M0 0L13 -13L0 -94Z" fill-opacity=".32"/></g><g transform="rotate(90)"><path d="M0 0L-13 -13L0 -94Z"/><path d="M0 0L13 -13L0 -94Z" fill-opacity=".32"/></g><g transform="rotate(180)"><path d="M0 0L-13 -13L0 -94Z"/><path d="M0 0L13 -13L0 -94Z" fill-opacity=".32"/></g><g transform="rotate(270)"><path d="M0 0L-13 -13L0 -94Z"/><path d="M0 0L13 -13L0 -94Z" fill-opacity=".32"/></g><circle r="4.5"/></g></svg>
